<?xml version="1.0" standalone="no"?>
<!DOCTYPE svg PUBLIC "-//W3C//DTD SVG 20010904//EN"
 "http://www.w3.org/TR/2001/REC-SVG-20010904/DTD/svg10.dtd">
<svg version="1.0" xmlns="http://www.w3.org/2000/svg"
 width="101.000000pt" height="101.000000pt" viewBox="0 0 101.000000 101.000000"
 preserveAspectRatio="xMidYMid meet">
<metadata>
Created by potrace 1.14, written by Peter Selinger 2001-2017
</metadata>
<g transform="translate(0.000000,101.000000) scale(0.100000,-0.100000)"
fill="#000000" stroke="none">
<path d="M450 920 c0 -5 -13 -10 -30 -10 -16 0 -30 -4 -30 -10 0 -5 -7 -10
-15 -10 -9 0 -27 -11 -40 -25 -25 -24 -33 -55 -15 -55 6 0 10 -9 10 -20 0 -11
5 -20 10 -20 20 0 9 -33 -20 -60 -16 -15 -30 -38 -30 -50 0 -25 22 -50 44 -50
9 0 16 -8 16 -20 0 -11 5 -20 10 -20 6 0 10 -9 10 -19 0 -11 6 -21 13 -24 7
-2 8 -8 3 -13 -5 -5 -11 -4 -13 4 -3 6 -18 12 -34 12 -16 0 -29 5 -29 10 0 6
-13 10 -30 10 -16 0 -30 5 -30 10 0 6 -13 10 -30 10 -27 0 -30 3 -30 30 0 36
-27 41 -50 10 -8 -11 -25 -20 -38 -20 -24 0 -72 -40 -72 -60 0 -24 30 -40 74
-40 25 0 46 -4 46 -10 0 -5 14 -10 30 -10 17 0 30 -4 30 -10 0 -5 14 -10 30
-10 17 0 30 -4 30 -10 0 -5 18 -10 40 -10 33 0 40 -3 40 -20 0 -11 -4 -20 -10
-20 -5 0 -10 -9 -10 -20 0 -11 -4 -20 -10 -20 -5 0 -10 -9 -10 -20 0 -11 -4
-20 -10 -20 -5 0 -10 -9 -10 -20 0 -11 -4 -20 -10 -20 -5 0 -10 -4 -10 -10 0
-5 14 -10 30 -10 17 0 30 -2 30 -5 0 -3 -20 -26 -45 -50 -42 -42 -75 -58 -75
-35 0 6 -4 10 -10 10 -21 0 -10 -70 15 -95 24 -25 75 -35 75 -15 0 6 9 10 20
10 11 0 20 5 20 10 0 6 9 10 20 10 11 0 20 5 20 10 0 6 7 10 16 10 8 0 37 23
64 50 68 70 79 67 77 -20 -2 -80 -13 -73 112 -70 41 1 69 7 79 16 13 13 12 16
-7 21 -21 5 -30 43 -10 43 18 0 6 74 -16 93 -14 13 -16 20 -7 23 18 8 15 44
-4 44 -8 0 -12 4 -9 10 3 5 0 10 -7 10 -10 0 -12 11 -10 40 2 22 8 40 13 40 6
0 9 8 7 18 -2 13 5 18 30 20 17 2 32 7 32 13 0 5 14 9 30 9 17 0 30 5 30 10 0
6 8 10 18 10 10 0 24 9 32 20 8 11 23 20 34 20 11 0 16 -3 13 -6 -3 -4 -1 -16
5 -28 7 -11 12 -24 11 -27 -1 -3 12 -19 28 -35 30 -28 31 -28 42 -9 17 30 18
85 0 85 -8 0 -11 5 -8 10 3 6 0 10 -8 10 -10 0 -13 7 -10 20 3 11 8 20 12 20
4 0 7 14 7 30 0 19 -5 30 -13 30 -8 0 -12 4 -9 9 3 5 0 11 -7 14 -7 3 -12 19
-11 41 1 24 -2 36 -11 36 -8 0 -12 8 -10 20 2 13 -2 20 -11 20 -8 0 -12 5 -9
10 3 6 2 10 -4 10 -5 0 -13 -4 -16 -10 -3 -5 -16 -10 -28 -10 -13 0 -29 -9
-37 -20 -8 -11 -22 -20 -31 -20 -28 0 -30 -28 -4 -48 13 -11 21 -22 18 -26 -3
-3 5 -6 20 -6 20 0 25 -5 24 -20 -1 -12 -8 -20 -19 -20 -10 0 -18 -4 -18 -10
0 -5 -9 -10 -20 -10 -11 0 -20 -4 -20 -10 0 -5 -9 -10 -20 -10 -11 0 -20 -4
-20 -10 0 -5 -4 -10 -10 -10 -5 0 -10 9 -10 19 0 11 -5 21 -10 23 -6 2 -11 21
-12 43 -1 22 -10 55 -20 73 -23 41 -22 42 2 42 11 0 20 5 20 10 0 6 9 10 19
10 14 0 19 6 18 20 -1 20 -37 30 -37 10 0 -14 -33 -13 -48 2 -7 7 -12 20 -12
30 0 10 -4 18 -10 18 -5 0 -10 9 -10 20 0 11 -6 20 -14 20 -9 0 -12 7 -9 20 5
18 0 20 -56 20 -34 0 -61 -4 -61 -10z"/>
</g>
</svg>
